<?xml version="1.0" encoding="UTF-8"?>
<svg id="Layer_2" data-name="Layer 2" xmlns="http://www.w3.org/2000/svg" viewBox="0 0 585.49 586.04">
  <defs>
    <style>
      .cls-1 {
        fill: #344955;
      }

      .cls-1, .cls-2 {
        stroke-width: 0px;
      }

      .cls-2 {
        fill: #f9aa31;
      }
    </style>
  </defs>
  <g id="Layer_1-2" data-name="Layer 1">
    <g>
      <path class="cls-2" d="M293.11,586.04c-33.19,0-66.39,0-99.58,0-91.44,0-170.66-63.6-189.02-151.69C1.52,420.01.06,405.55.05,390.94c-.02-65.94-.13-131.89.04-197.83.1-37.97,9.99-73.38,31.15-105.22C62.71,40.55,106.73,11.72,163.59,2.41,173.6.77,183.69.08,193.79.07,259.56-.04,325.32,0,391.09.02c93.69,0,172.88,64.59,190.71,155.4,2.61,13.32,3.7,26.73,3.69,40.27-.02,65.02-.03,130.04,0,195.06.02,55.16-19.19,102.66-59.09,141.4-31.37,30.47-69.27,48.07-113.21,52.74-9.78,1.04-19.57,1.14-29.37,1.14-30.23.01-60.47,0-90.7,0Z"/>
      <path class="cls-1" d="M227.52,420.66c-31.64,0-63.29-.38-94.92.18-13.39.24-28.49-9.75-28.7-27.65-.27-23.21-.49-46.44.04-69.64.7-30.75,24.23-53.89,55.52-54.19,47.07-.44,94.15-.09,141.22-.19,2.69,0,3.23.86,3.47,3.31,2.35,23.94,10.07,46,24.17,65.74,6.03,8.45,12.9,16.19,20.97,22.79,1.78,1.46,2.33,2.89,2.31,5.05-.1,9.07,0,18.14-.05,27.21-.07,15.6-11.96,27.38-27.69,27.39-32.11.02-64.22,0-96.33,0Z"/>
      <path class="cls-1" d="M231.17,253.33c-28.87-.51-52.5-11.12-65.28-37.66-13.09-27.18-12.24-55.01,2.64-81.69,7.95-14.24,20.15-23.92,35.87-29.08,17.87-5.87,35.83-6.93,53.94-.99,20.64,6.76,34.92,20.12,42.28,40.27,7.34,20.07,8.03,40.41,1.13,60.82-10.11,29.93-36.04,48.58-70.59,48.34Z"/>
      <path class="cls-1" d="M412.33,182.59c24.59-.41,44.87,9.2,60.95,26.96,31.64,34.96,30.37,87.45-2.52,121.17-8.27,8.49-18.2,14.72-29.43,19.18,5.55,9.86,10.86,19.57,16.47,29.11,1.43,2.43,1.16,4-.47,6.1-7.66,9.88-15.1,19.92-22.79,29.78-1.63,2.09-1.64,3.35.04,5.46,7.7,9.65,15.15,19.49,22.76,29.21,1.32,1.69,2.23,2.92.56,5.14-14.9,19.67-29.67,39.44-44.49,59.16-.24.32-.71.49-1.07.73-1.88-2.76-1.49-5.89-1.49-8.95-.01-71.17,0-142.33-.02-213.5,0-3.21.31-6.48-1.31-9.47-.35-3.09,2.21-2.38,3.78-2.61,11.3-1.68,17.71-9,17.44-20.09-.23-9.82-7.54-17.31-17.49-18.13-1.7-.14-4.27.93-4.66-2.19,2.19-2.16,2.31-4.89,2.3-7.7-.01-14.1-.03-28.2.01-42.31,0-2.41-.4-4.96,1.42-7.03Z"/>
      <path class="cls-1" d="M412.33,182.59c0,17.32-.08,34.63.09,51.95.03,3.11-.56,5.2-3.84,5.93-.61,1.46-2.04,1.81-3.31,2.34-8.17,3.41-11.81,10-11.9,18.23-.08,8,4,14,11.38,17.68,1.63.81,3.68.94,4.76,2.7,3.37.81,2.83,3.46,2.83,5.86,0,62.24,0,124.49,0,186.73,0,13.52,0,27.05-.01,40.57-9.19-7.77-16.24-17.65-25.29-25.5-7.12-6.18-8.66-13.28-8.55-22.24.45-38.27.17-76.54.24-114.81,0-3-.59-4.74-3.69-6.33-32.02-16.46-50.33-50.64-46-86.48,4.22-34.99,22.81-59.55,56.35-72.45,8.58-3.3,17.62-4.94,26.95-4.17Z"/>
      <path class="cls-2" d="M409.51,281.41c-10.68-2.61-17.44-10.42-17.59-20.32-.15-9.62,6.1-17.36,16.66-20.62,12.09-.46,19.65,4.38,22.7,14.52,2.75,9.16-1.08,18.77-9.28,23.81-3.9,2.39-8.13,2.63-12.48,2.62Z"/>
    </g>
  </g>
</svg>